<svg width="1041" height="1041" viewBox="0 0 1041 1041" fill="none" xmlns="http://www.w3.org/2000/svg">
<path d="M1040.51 520.908C1040.51 232.995 808.419 0.901855 520.506 0.901855C232.593 0.901855 0.5 232.995 0.5 520.908C0.5 779.442 191.463 993.908 438.246 1035.04V670.74H306.041V520.908H438.246V406.33C438.246 277.063 514.63 203.616 635.084 203.616C690.904 203.616 752.599 212.43 752.599 212.43V341.697H687.966C623.333 341.697 602.767 382.827 602.767 423.958V520.908H746.724L723.22 670.74H602.767V1035.04C849.549 993.908 1040.51 779.442 1040.51 520.908Z" fill="#337FFF"/>
<path d="M723.217 670.736L746.721 520.904H602.763V423.953C602.763 382.823 623.329 341.693 687.963 341.693H752.596V212.426C752.596 212.426 693.838 203.612 635.08 203.612C517.565 203.612 438.243 274.121 438.243 406.326V520.904H306.038V670.736H438.243V1035.03C464.683 1037.97 491.124 1040.91 520.503 1040.91C546.944 1040.91 576.322 1037.97 602.763 1035.03V670.736H723.217Z" fill="white"/>
</svg>
