<svg width="1041" height="1041" viewBox="0 0 1041 1041" fill="none" xmlns="http://www.w3.org/2000/svg">
<path d="M520.927 1040.62C808.118 1040.62 1040.93 807.807 1040.93 520.615C1040.93 233.423 808.118 0.608887 520.927 0.608887C233.736 0.608887 0.920654 233.423 0.920654 520.615C0.920654 807.807 233.736 1040.62 520.927 1040.62Z" fill="url(#paint0_linear_133_198)"/>
<path d="M682.516 326.713C661.951 326.713 647.261 341.403 647.261 361.968C647.261 382.533 661.951 397.223 682.516 397.223C703.081 397.223 717.771 382.533 717.771 361.968C717.771 341.403 703.081 326.713 682.516 326.713Z" fill="white"/>
<path d="M523.87 370.781C441.609 370.781 374.038 438.352 374.038 520.613C374.038 602.874 441.609 670.445 523.87 670.445C606.131 670.445 673.702 602.874 673.702 520.613C673.702 438.352 606.131 370.781 523.87 370.781ZM523.87 617.563C470.988 617.563 426.919 573.495 426.919 520.613C426.919 467.731 470.988 423.663 523.87 423.663C576.752 423.663 620.82 467.731 620.82 520.613C620.82 573.495 576.752 617.563 523.87 617.563Z" fill="white"/>
<path d="M641.383 826.154H397.538C297.65 826.154 215.389 743.894 215.389 644.005V400.161C215.389 300.272 297.65 218.012 397.538 218.012H641.383C741.271 218.012 823.531 300.272 823.531 400.161V644.005C826.469 743.894 744.209 826.154 641.383 826.154ZM400.476 273.831C329.967 273.831 274.147 329.651 274.147 400.161V644.005C274.147 714.515 329.967 770.334 400.476 770.334H644.321C714.83 770.334 770.65 714.515 770.65 644.005V400.161C770.65 329.651 714.83 273.831 644.321 273.831H400.476Z" fill="white"/>
<defs>
<linearGradient id="paint0_linear_133_198" x1="34.3538" y1="110.762" x2="1073.62" y2="988.524" gradientUnits="userSpaceOnUse">
<stop offset="0.0011048" stop-color="#FBE18A"/>
<stop offset="0.2094" stop-color="#FCBB45"/>
<stop offset="0.3765" stop-color="#F75274"/>
<stop offset="0.5238" stop-color="#D53692"/>
<stop offset="0.7394" stop-color="#8F39CE"/>
<stop offset="1" stop-color="#5B4FE9"/>
</linearGradient>
</defs>
</svg>
