<svg width="1041" height="1041" viewBox="0 0 1041 1041" fill="none" xmlns="http://www.w3.org/2000/svg">
<path d="M520.994 1040.62C808.185 1040.62 1041 807.807 1041 520.615C1041 233.424 808.185 0.608887 520.994 0.608887C233.802 0.608887 0.987305 233.424 0.987305 520.615C0.987305 807.807 233.802 1040.62 520.994 1040.62Z" fill="#4467AD"/>
<path d="M561.054 449.735C569.528 440.491 576.461 430.476 585.706 422.002C612.669 396.579 644.255 383.482 682.003 384.253C702.804 384.253 722.834 385.794 742.093 391.957C787.546 405.053 813.738 435.868 826.064 480.55C835.309 513.677 836.85 547.573 837.62 581.47C837.62 653.115 837.62 724.761 837.62 797.176C837.62 804.11 836.079 805.651 829.146 805.651C792.168 805.651 755.189 805.651 718.211 805.651C712.048 805.651 710.507 803.339 710.507 797.176C710.507 728.613 710.507 660.819 710.507 592.255C710.507 575.307 709.737 558.359 704.344 541.411C695.87 510.595 673.529 495.188 641.173 496.728C597.262 499.039 574.15 520.61 568.758 565.292C567.217 576.077 566.446 586.863 566.446 597.648C566.446 663.901 566.446 730.924 566.446 797.176C566.446 804.11 564.906 805.651 557.972 805.651C520.994 805.651 483.246 805.651 446.267 805.651C440.104 805.651 438.563 804.11 438.563 797.947C438.563 666.212 438.563 534.477 438.563 402.742C438.563 396.579 440.874 395.038 447.037 395.038C482.475 395.038 517.913 395.038 553.35 395.038C559.513 395.038 561.824 397.349 561.054 403.512C561.054 418.15 561.054 433.557 561.054 449.735Z" fill="#FEFEFE"/>
<path d="M358.444 599.967C358.444 665.449 358.444 730.161 358.444 795.643C358.444 802.577 356.903 804.888 349.2 804.888C312.221 804.117 275.243 804.888 238.265 804.888C232.102 804.888 230.561 803.347 230.561 797.184C230.561 665.449 230.561 533.714 230.561 401.979C230.561 396.587 232.102 394.275 237.495 394.275C275.243 394.275 312.221 394.275 349.97 394.275C356.903 394.275 358.444 397.357 358.444 403.52C358.444 468.232 358.444 534.484 358.444 599.967Z" fill="#FEFEFE"/>
<path d="M368.459 263.307C368.459 304.137 335.332 337.264 294.502 337.264C254.442 337.264 220.546 304.137 220.546 264.078C220.546 223.247 253.672 190.121 294.502 190.121C335.332 190.121 368.459 223.247 368.459 263.307Z" fill="#FEFEFE"/>
</svg>
