<svg width="1041" height="1041" viewBox="0 0 1041 1041" fill="none" xmlns="http://www.w3.org/2000/svg">
<path d="M520.038 1040.13C807.229 1040.13 1040.04 807.32 1040.04 520.129C1040.04 232.937 807.229 0.12207 520.038 0.12207C232.846 0.12207 0.03125 232.937 0.03125 520.129C0.03125 807.32 232.846 1040.13 520.038 1040.13Z" fill="#8F39CE"/>
<path d="M226.25 261.595L467.157 534.819C481.847 549.509 499.474 558.322 520.039 558.322C540.605 558.322 561.17 549.509 572.921 534.819L810.891 267.471C813.829 264.534 813.828 264.533 816.766 261.595C807.953 258.657 796.201 255.72 784.449 255.72H255.629C243.878 252.782 232.126 255.719 226.25 261.595C223.313 261.595 223.313 261.595 226.25 261.595Z" fill="white"/>
<path d="M854.961 290.978C854.961 293.916 852.023 296.854 849.085 299.792L611.116 567.14C587.613 593.581 555.296 608.271 517.104 608.271C481.849 608.271 446.594 593.581 423.091 567.14L182.184 293.916C182.184 293.916 182.184 293.916 182.184 290.978C173.37 302.73 170.433 317.42 170.433 332.109V702.283C170.433 746.351 205.687 784.544 252.694 784.544H781.514C825.582 784.544 863.774 749.289 863.774 702.283V332.109C866.712 320.358 860.837 305.667 854.961 290.978Z" fill="white"/>
</svg>
